HIERARCHY
ROOT Hips
{
  OFFSET 13.6774 106.653 -34.4427
  CHANNELS 6 Xposition Yposition Zposition Zrotation Xrotation Yrotation
  JOINT ToSpine
  {
    OFFSET -2.69724 7.43032 -0.144315
    CHANNELS 3 Zrotation Xrotation Yrotation
    JOINT Spine
    {
      OFFSET -0.0310711 10.7595 1.96963
      CHANNELS 3 Zrotation Xrotation Yrotation
      JOINT Spine1
      {
        OFFSET 19.9056 3.91189 0.764692
        CHANNELS 3 Zrotation Xrotation Yrotation
        JOINT Neck
        {
          OFFSET 25.9749 7.03908 -0.130764
          CHANNELS 3 Zrotation Xrotation Yrotation
          JOINT Head
          {
            OFFSET 9.52751 0.295786 -0.907742
            CHANNELS 3 Zrotation Xrotation Yrotation
            End Site
            {
              OFFSET 16.4037 0.713936 2.7358
            }
          }
        }
        JOINT LeftShoulder
        {
          OFFSET 17.7449 4.33886 11.7777
          CHANNELS 3 Zrotation Xrotation Yrotation
          JOINT LeftArm
          {
            OFFSET 0.911315 1.27913 9.80584
            CHANNELS 3 Zrotation Xrotation Yrotation
            JOINT LeftForeArm
            {
              OFFSET 28.6126 1.18197 -3.53199
              CHANNELS 3 Zrotation Xrotation Yrotation
              JOINT LeftHand
              {
                OFFSET 27.5088 0.0218783 0.327423
                CHANNELS 3 Zrotation Xrotation Yrotation
                End Site
                {
                  OFFSET 18.6038 -0.000155887 0.382096
                }
              }
            }
          }
        }
        JOINT RightShoulder
        {
          OFFSET 17.1009 2.89543 -12.2328
          CHANNELS 3 Zrotation Xrotation Yrotation
          JOINT RightArm
          {
            OFFSET 1.4228 0.178766 -10.211
            CHANNELS 3 Zrotation Xrotation Yrotation
            JOINT RightForeArm
            {
              OFFSET 28.733 1.87905 2.64907
              CHANNELS 3 Zrotation Xrotation Yrotation
              JOINT RightHand
              {
                OFFSET 27.4588 0.290562 -0.101845
                CHANNELS 3 Zrotation Xrotation Yrotation
                End Site
                {
                  OFFSET 17.8396 -0.255518 -0.000602873
                }
              }
            }
          }
        }
      }
    }
  }
  JOINT LeftUpLeg
  {
    OFFSET -5.61296 -2.22332 -10.2353
    CHANNELS 3 Zrotation Xrotation Yrotation
    JOINT LeftLeg
    {
      OFFSET 2.56703 -44.7417 -7.93097
      CHANNELS 3 Zrotation Xrotation Yrotation
      JOINT LeftFoot
      {
        OFFSET 3.16933 -46.5642 -3.96578
        CHANNELS 3 Zrotation Xrotation Yrotation
        JOINT LeftToeBase
        {
          OFFSET 0.346054 -6.02161 12.8035
          CHANNELS 3 Zrotation Xrotation Yrotation
          End Site
          {
            OFFSET 0.134235 -1.35082 5.13018
          }
        }
      }
    }
  }
  JOINT RightUpLeg
  {
    OFFSET -5.7928 -1.72406 10.6446
    CHANNELS 3 Zrotation Xrotation Yrotation
    JOINT RightLeg
    {
      OFFSET -2.57161 -44.7178 -7.85259
      CHANNELS 3 Zrotation Xrotation Yrotation
      JOINT RightFoot
      {
        OFFSET -3.10148 -46.5936 -4.03391
        CHANNELS 3 Zrotation Xrotation Yrotation
        JOINT RightToeBase
        {
          OFFSET -0.0828122 -6.13587 12.8035
          CHANNELS 3 Zrotation Xrotation Yrotation
          End Site
          {
            OFFSET -0.131328 -1.35082 5.13018
          }
        }
      }
    }
  }
}
MOTION
Frames: 19
Frame Time: 0.03333333333333333
0.0000 93.1000 0.0000 71.8543 -26.8085 -6.8911 -70.9994 0.7070 87.9974 83.8175 70.8900 2.0286 3.0891 17.8097 6.8377 -113.3479 29.7369 151.0918 -176.0832 76.4380 -155.2820 0.2331 -14.2011 -18.5830 -67.0385 33.6215 -145.7316 23.1289 -4.5574 -97.9449 -0.3445 0.4893 0.0143 -1.5221 5.2255 30.6118 -128.0654 -15.8366 109.8502 22.3824 -4.2247 81.7050 0.7907 -0.5200 -0.2394 -47.5876 14.8494 96.2012 -4.1145 43.2568 -13.0938 -5.4874 -12.0806 -1.0461 3.2529 -10.6639 6.6004 -45.4907 -18.3992 76.9431 0.8815 33.9412 -0.1558 -4.7524 1.3147 -0.2143 0.1241 -12.9389 -0.2441 
0.0000 93.1000 0.0000 72.0512 -29.0073 -8.0073 -70.9878 3.5967 87.9976 82.1420 70.4284 0.7345 5.6092 17.0995 8.3985 -113.0511 29.2735 150.7615 -178.0542 76.2769 -153.4389 1.3605 -15.1054 -19.1236 -67.6825 34.8380 -145.9395 22.3980 -3.6477 -97.8030 -0.0371 2.8874 -1.2902 -0.3424 5.6415 32.0189 -127.7979 -14.1020 108.8765 24.6190 -3.7229 81.4841 -1.0172 -2.7889 -1.9569 -47.6315 14.6586 96.1532 -4.7209 43.4819 -12.0885 -4.8303 -13.8234 -3.1728 3.1159 -9.3162 7.4734 -43.4393 -18.4793 78.1960 1.1178 34.8894 0.8451 -2.0374 3.9531 0.8878 0.0979 -14.6007 -5.7620 
0.0000 93.1000 0.0000 70.8105 -32.0591 -9.0297 -71.0018 -0.0589 87.9921 81.6788 70.6648 -0.7611 4.5682 17.4399 8.7073 -112.4995 28.7952 151.7380 175.3217 76.1627 -147.0302 -0.1196 -16.6369 -19.9332 -69.4826 34.9482 -145.7435 21.1018 -3.3744 -97.1924 0.0625 -0.0131 0.3406 -1.7441 5.9648 33.3416 -130.0858 -11.3185 107.8196 27.2754 -4.0015 82.7744 1.1930 0.2134 -0.0460 -48.2731 13.9908 97.2928 -3.6259 45.6164 -10.7366 -5.0976 -16.0685 -1.2038 2.3400 -8.7360 6.7998 -40.9785 -18.3520 79.3588 1.1008 36.1040 1.0729 -1.5206 6.0814 -0.7885 1.5303 -16.1632 -7.4568 
0.0000 93.1000 0.0000 70.7308 -33.9890 -8.7228 -71.0033 0.2019 87.9896 83.8576 70.9532 -3.3096 4.9730 17.5387 8.7675 -113.0419 27.8486 152.1042 175.5261 75.2042 -147.9099 -0.1565 -17.1899 -21.2694 -69.6270 34.1157 -144.7436 19.2596 -3.2190 -98.0620 0.1250 0.2565 0.1252 -1.8460 5.6762 35.9181 -129.8360 -10.9092 107.5630 27.7933 -3.7272 83.7115 0.9047 -0.1603 -0.3871 -48.2080 14.5400 98.9273 -3.8240 47.0532 -11.1143 -4.8456 -17.4967 -1.4877 2.4558 -8.4623 8.9674 -40.6878 -17.1107 79.7468 0.9225 34.8424 3.6289 -0.3565 5.4165 -0.6664 1.7514 -16.6540 -8.6196 
0.0000 93.1000 0.0000 71.1077 -35.9259 -9.0353 -71.0020 0.3698 87.9909 83.8995 71.2007 -3.0351 5.2482 18.6582 7.5694 -113.4255 27.8601 151.8487 175.4133 74.5239 -147.6627 -0.0641 -17.5592 -22.4156 -69.4029 33.4730 -144.8244 19.2402 -3.3931 -97.8711 0.1264 0.4081 -0.0285 -1.8918 5.8934 37.5565 -130.9200 -9.4013 105.8490 28.8076 -2.8990 85.0137 0.8285 -0.3176 -0.3567 -47.7179 15.1036 99.1065 -4.3507 48.4711 -10.1736 -4.0528 -18.5291 -1.8479 2.9153 -9.7094 10.3935 -40.7821 -16.1746 79.0883 1.0735 33.2765 4.0706 0.0493 5.2703 -0.5977 1.2771 -14.0284 -8.0648 
0.0000 93.1000 0.0000 70.9744 -37.3571 -8.9179 -71.0007 0.1857 87.9944 81.0122 72.0462 -0.5309 5.2537 19.5679 6.9098 -113.2259 28.2585 152.9240 173.4987 74.1340 -147.8151 -0.3070 -17.5223 -23.7555 -68.8902 33.6667 -143.7691 21.1346 -4.2298 -97.2852 0.0035 0.2704 -0.1080 -2.1926 6.0900 39.0404 -132.8078 -9.1098 104.0728 30.1607 -2.4353 85.8745 0.8147 -0.1683 -0.2427 -47.1955 14.8221 99.0647 -3.9782 49.3446 -9.0758 -3.5879 -19.4654 -1.7766 2.6399 -9.5450 10.6504 -42.0723 -15.6780 78.0683 1.2029 31.1788 3.1227 -0.8414 5.1088 -0.5119 0.3616 -11.8848 -2.0287 
0.0000 93.1000 0.0000 70.8761 -38.0322 -9.2341 -71.0032 -0.5310 87.9969 81.9524 72.1823 -0.4283 4.8952 19.7386 6.9393 -114.1708 28.3241 153.1325 174.4992 73.9571 -148.2141 0.1181 -17.1251 -24.9269 -67.2074 34.0914 -143.6790 22.0700 -4.2383 -97.2922 0.0795 -0.4483 0.1874 -2.1261 6.1226 40.2319 -133.0517 -8.0573 102.1436 30.2475 -2.1028 86.9058 1.2446 0.5669 0.4272 -46.7501 15.2672 99.5901 -4.8412 50.2506 -8.6344 -3.2097 -18.9838 -1.8144 3.1133 -9.9335 11.0048 -41.9845 -16.0604 77.8831 0.7592 29.9059 4.9464 0.4286 5.7255 -1.0356 1.2543 -10.0136 -2.5480 
0.0000 93.1000 0.0000 70.9450 -38.8472 -9.1568 -71.0020 -0.8141 87.9995 84.0130 71.9352 -1.6439 4.9334 19.9298 6.1987 -114.3117 28.1809 155.2297 172.7026 73.2724 -145.9658 0.3614 -16.9928 -25.0500 -65.4909 35.6385 -142.7657 23.7193 -3.9425 -97.0354 0.2415 -0.7272 0.1552 -2.1885 6.4111 41.8718 -133.0274 -7.2851 100.7371 30.1017 -1.8041 87.6285 1.4033 0.8167 0.6079 -46.7063 15.0666 99.9940 -5.0416 52.5935 -8.7677 -2.3719 -19.9500 -2.0782 3.6482 -11.5728 12.1190 -41.7619 -16.1152 77.8780 0.9773 30.4453 5.1004 0.6451 5.9401 -1.0575 1.2244 -9.1149 0.7109 
0.0000 93.1000 0.0000 72.1185 -39.1864 -9.0324 -71.0055 -0.8582 87.9992 84.0598 71.9296 -2.2903 4.3530 20.0273 5.7207 -114.1538 27.9238 157.2372 172.6176 72.9185 -144.9950 -0.1735 -16.9932 -25.6205 -64.9813 36.0061 -142.6917 24.8937 -3.8710 -97.0245 -0.0278 -0.7388 0.2429 -2.5241 6.4181 42.8426 -133.6789 -7.3079 99.9693 31.0046 -1.9996 86.8343 1.5757 0.7939 0.5195 -47.1770 15.0951 99.7956 -5.0814 53.2601 -8.5428 -1.6933 -20.6096 -1.8090 3.0890 -10.4913 12.5147 -42.0812 -16.6739 77.8282 1.8677 30.1930 5.1273 0.3608 6.1739 -1.4456 0.4161 -8.5058 1.4494 
0.0000 93.1000 0.0000 71.6071 -39.9790 -9.0477 -71.0034 0.1746 87.9983 83.0469 71.8849 -1.6172 4.9257 20.0659 5.4363 -115.1811 27.7394 157.3073 172.4815 73.0246 -146.1925 0.0255 -17.1362 -25.3878 -64.0440 35.9719 -142.8153 25.0952 -3.6690 -96.3552 -0.0315 0.1279 -0.1947 -2.3336 6.4147 42.6962 -134.0731 -8.5608 99.9445 30.9870 -2.2516 86.5725 1.0381 -0.0988 -0.3097 -47.1595 15.6480 100.8425 -5.2135 53.2098 -8.3840 -1.5553 -20.8900 -2.2565 2.9397 -10.1162 13.1465 -41.9015 -16.9567 77.1175 1.9201 31.2784 5.9542 -0.3114 6.2218 -0.9460 0.0012 -10.2488 0.1634 
0.0000 93.1000 0.0000 73.0223 -40.1088 -8.1992 -71.0040 0.2051 87.9972 83.8660 72.0127 -2.1043 4.3383 20.2928 5.7951 -114.2971 27.7845 156.1139 174.3848 72.9726 -149.2532 0.1712 -16.8934 -24.9841 -63.9477 34.9011 -143.8011 24.7461 -2.9706 -96.2044 0.1330 0.1740 -0.2398 -2.2483 6.2906 42.9673 -134.0333 -8.2691 100.5937 30.4402 -2.3355 85.9109 0.9384 -0.1486 -0.3426 -47.0270 16.0237 100.9605 -4.5540 54.4496 -8.5353 -0.9320 -20.9901 -2.4357 2.3524 -10.9035 13.8768 -41.8006 -16.0647 77.3204 1.9822 32.0791 3.7448 -0.5977 5.1183 -0.8848 -0.1205 -8.8046 2.1764 
0.0000 93.1000 0.0000 73.0293 -39.4590 -8.2929 -71.0007 1.1459 87.9940 82.9004 71.9811 -0.8889 4.4684 19.8551 6.3037 -114.2650 27.9615 155.9194 174.5301 73.1718 -148.5254 0.1788 -16.7782 -24.7130 -64.3751 34.3492 -143.9386 24.1154 -2.8680 -96.1811 0.0666 1.0197 -0.6744 -2.0872 6.4414 42.9459 -133.9625 -8.3378 100.8643 29.9655 -2.2220 85.7794 0.2835 -0.9421 -1.0265 -46.8962 16.2119 99.9995 -5.0011 55.5433 -7.0178 -1.1417 -21.2409 -2.7801 1.8928 -9.7995 13.0613 -41.7633 -16.0281 77.9403 1.0182 32.0861 4.0202 -1.3036 4.3775 -0.3406 0.1398 -8.9844 2.7212 
0.0000 93.1000 0.0000 73.0326 -39.2053 -8.2078 -71.0031 0.6103 87.9946 82.7540 72.1262 -1.1261 3.9744 20.0341 5.8917 -114.1760 28.1116 155.9951 177.7979 72.8682 -151.5257 0.1110 -16.3965 -24.0520 -63.9740 34.0659 -143.8486 23.9612 -3.2124 -96.1926 -0.1181 0.5136 -0.3769 -2.2324 6.3855 43.0328 -134.7782 -8.3379 100.8226 29.8399 -2.1677 85.9688 0.7797 -0.4980 -0.4819 -47.1330 15.9954 99.8847 -5.5257 55.0983 -7.1591 -1.3871 -21.8163 -2.6269 2.4849 -10.6193 13.9843 -41.9732 -15.9651 78.6611 0.7043 32.9575 2.9614 -0.9394 3.6936 -0.7813 -0.0450 -8.5600 3.4943 
0.0000 93.1000 0.0000 72.7752 -39.0154 -8.1894 -71.0032 0.4776 87.9982 80.8513 71.9813 0.6959 4.3519 19.8641 5.9352 -114.2128 28.1586 156.2508 177.1650 73.0893 -150.9821 0.3276 -16.6008 -24.1824 -63.9854 34.0468 -143.8199 24.0709 -3.3266 -96.2200 -0.1400 0.2304 -0.1460 -2.0743 6.4128 42.5425 -134.8394 -8.3125 100.7078 30.2309 -2.0491 85.8921 0.8024 -0.2251 -0.0891 -46.9003 15.3638 99.0186 -5.1685 55.1558 -6.7615 -1.1095 -21.4097 -2.7101 2.6702 -9.6437 12.8931 -41.9908 -16.0526 79.1904 0.9015 33.2886 1.1475 -0.4843 2.9465 -1.0313 -0.6413 -7.4001 5.5229 
0.0000 93.1000 0.0000 73.0173 -38.3135 -7.1130 -71.0065 0.2509 87.9969 79.7478 71.9080 2.1719 4.5987 19.2226 6.1657 -115.1858 27.9689 155.9633 177.0043 73.1721 -151.9775 0.0443 -16.8884 -24.0467 -64.0770 34.1097 -143.7394 23.9678 -3.0600 -96.2338 -0.0376 0.1113 -0.0714 -2.1291 6.1011 42.0063 -135.0589 -8.9577 100.1180 31.0844 -1.9820 86.8299 0.7855 -0.0845 -0.0983 -46.9650 14.9182 98.7801 -5.1908 55.2476 -6.9216 -0.8100 -21.6373 -2.4760 2.4318 -9.1908 13.9811 -42.7890 -15.8317 79.0433 0.7803 32.9588 0.6506 -0.1917 2.2734 -1.2010 -0.1735 -6.8805 5.0791 
0.0000 93.1000 0.0000 73.9863 -38.1822 -7.1756 -71.0076 0.0820 87.9963 80.6850 71.5095 1.9683 4.5982 18.8679 6.5882 -115.1926 28.0033 156.0842 176.9035 73.2438 -151.3117 -0.1134 -16.9421 -24.2855 -64.1060 33.9787 -143.5591 23.9163 -2.9497 -96.3447 -0.0536 -0.0269 0.1760 -2.2245 6.0406 41.9733 -135.0143 -9.0987 99.8694 31.1514 -1.8998 85.8788 0.8819 0.0246 -0.1910 -47.1729 15.0123 98.9922 -4.8361 55.3959 -7.7035 -0.7214 -20.9313 -2.1979 2.9822 -9.9071 15.1343 -42.8650 -15.2167 79.7396 0.8567 33.0616 0.9413 -0.3300 2.3197 -1.1918 -0.1848 -6.7345 4.1286 
0.0000 93.1000 0.0000 73.8250 -38.1060 -7.2267 -71.0194 -3.2017 87.9966 80.8246 71.8692 1.7759 3.1213 18.9314 5.7854 -115.2112 27.9617 156.2499 177.4849 73.4229 -152.3283 -0.2331 -16.9895 -24.8971 -63.9778 34.2033 -143.7735 23.7599 -3.4693 -96.3109 -0.5777 -2.8611 1.8725 -2.8330 5.8737 42.0069 -134.8336 -9.5068 99.7559 30.9369 -2.2499 85.9549 3.2867 2.8760 2.2270 -46.9195 15.0991 98.1214 -4.9440 55.2830 -8.2222 -1.7076 -20.1094 -0.5304 2.7267 -11.0016 15.7628 -42.7588 -16.2282 79.2109 1.0159 33.2328 0.5868 -1.2368 2.8290 -2.7425 1.5434 -7.8304 3.9162 
0.0000 93.1000 0.0000 74.0776 -38.5789 -7.2902 -70.9988 0.3582 88.0056 79.8567 71.2628 2.1190 4.0212 19.2493 5.8905 -115.1047 28.0977 156.2063 -180.2882 73.9587 -153.4873 0.4205 -17.4576 -23.9524 -63.3246 33.8600 -144.8835 24.1831 -3.1008 -96.2307 -0.1037 0.1575 0.0458 -1.9120 5.9620 41.8508 -134.8320 -9.6304 99.7095 31.1716 -1.7067 85.8573 1.0750 -0.0625 0.1182 -47.1666 14.9790 99.0057 -5.2762 55.0901 -8.1704 -1.3856 -20.9919 -2.3396 2.3503 -10.2493 14.9853 -43.0863 -15.9443 78.6401 0.8082 33.3420 0.8105 -0.7222 3.0571 -1.0908 -0.4040 -8.9191 3.3468 
0.0000 93.1000 0.0000 73.8664 -38.0752 -7.3216 -70.9977 -0.0275 88.0057 79.8077 71.7732 2.6867 3.9468 19.8331 6.0256 -115.3078 28.0808 154.9651 -179.1744 73.9186 -154.3761 0.5329 -17.0276 -24.2013 -62.8245 34.4349 -144.5730 24.1096 -3.1702 -96.5389 0.0017 -0.1866 0.1888 -1.9410 5.7921 41.9675 -134.9209 -9.0673 99.0248 30.8937 -2.0108 85.9712 1.2846 0.2172 0.1974 -46.9577 15.2520 98.9483 -4.7782 54.5408 -7.5343 -1.1926 -21.3423 -2.2123 2.2154 -9.5507 14.1324 -42.7932 -16.0571 79.0280 0.7366 32.9726 0.8232 -1.1520 2.7323 -0.9902 -0.1632 -7.9462 5.3944 
